<svg width="877" height="660" viewBox="0 0 877 660" fill="none" xmlns="http://www.w3.org/2000/svg">
<g clip-path="url(#clip0)">
<path opacity="0.5" fill-rule="evenodd" clip-rule="evenodd" d="M867.393 660.448H0.586486C-10.3884 512.646 135.329 419.51 214.498 368.91C224.782 362.336 233.943 356.481 241.492 351.317C274.581 328.68 299.117 279.248 325.212 226.676C373.287 129.82 426.654 22.3023 548.544 52.0385C655.706 78.2502 816.764 189.78 877.317 356.629V633.745C874.313 642.577 871.008 651.478 867.393 660.448Z" fill="url(#paint0_linear)"/>
<path d="M476.317 465.448C350.396 465.448 248.317 475.745 248.317 488.448C248.317 501.15 350.396 511.448 476.317 511.448C602.238 511.448 704.317 501.15 704.317 488.448C704.317 475.745 602.238 465.448 476.317 465.448Z" fill="#F0F0F5"/>
<path d="M612.224 491.273C612.224 495.424 608.874 498.883 604.715 498.998C600.556 498.998 597.09 495.655 596.975 491.504L596.628 467.061C596.628 462.91 599.978 459.451 604.137 459.336C608.296 459.336 611.762 462.679 611.878 466.83L612.224 491.273Z" fill="#091E1D"/>
<path d="M505.822 492.542C505.822 496.693 502.471 500.152 498.312 500.267C494.153 500.267 490.687 496.924 490.572 492.773L490.225 468.33C490.225 464.179 493.575 460.72 497.735 460.605C501.894 460.605 505.36 463.948 505.475 468.099L505.822 492.542Z" fill="#091E1D"/>
<path d="M603.675 473.863C603.791 483.318 596.166 491.043 586.692 491.158L515.526 491.965C506.053 492.081 498.312 484.471 498.197 475.016L490.572 313.368C490.456 303.913 498.081 296.188 507.555 296.073L590.158 295.035C599.632 294.92 607.372 302.53 607.488 311.984L603.675 473.863Z" fill="#34CB79"/>
<path opacity="0.1" d="M607.026 328.241L607.372 312.215C607.257 302.76 599.516 295.151 590.043 295.266L507.439 296.304C497.965 296.419 490.341 304.144 490.456 313.598L491.265 329.625L607.026 328.241Z" fill="#161826"/>
<path d="M621.12 308.179C621.12 310.831 619.041 312.907 616.384 313.022L481.445 314.636C478.788 314.636 476.708 312.561 476.593 309.909L476.362 292.845C476.362 290.193 478.441 288.118 481.098 288.002L616.037 286.388C618.694 286.388 620.774 288.463 620.889 291.115L621.12 308.179Z" fill="#34CB79"/>
<path d="M549.492 355.567L565.204 346.113L561.391 355.913L549.492 355.567Z" fill="white"/>
<path d="M543.6 340.694C543.6 340.694 544.871 340.694 546.835 343.691C548.799 346.689 553.189 354.76 553.189 354.76L561.16 351.186L563.009 348.073C563.009 348.073 559.543 341.155 556.77 340.694H543.6Z" fill="white"/>
<path d="M539.21 342.769C539.21 342.769 541.636 340.117 543.6 341.501C545.564 342.885 549.03 348.649 549.03 348.649L543.369 358.565L533.202 352.916L539.21 342.769Z" fill="white"/>
<path d="M556.655 367.904L557.464 386.121L550.647 378.166L556.655 367.904Z" fill="white"/>
<path d="M572.598 369.749C572.598 369.749 572.02 370.902 568.439 371.248C564.857 371.594 555.615 371.594 555.615 371.594L554.922 380.356L556.77 383.469C556.77 383.469 564.511 383.815 566.244 381.509L572.598 369.749Z" fill="white"/>
<path d="M572.714 364.906C572.714 364.906 573.984 368.25 571.789 369.403C569.71 370.441 562.894 370.671 562.894 370.671L556.77 360.986L566.591 354.645L572.714 364.906Z" fill="white"/>
<path d="M542.789 367.673L526.615 359.141L537.013 357.297L542.789 367.673Z" fill="white"/>
<path d="M533.202 380.472C533.202 380.472 532.509 379.434 534.011 376.206C535.513 372.977 540.134 365.022 540.134 365.022L532.971 360.064L529.39 360.179C529.39 360.179 525.231 366.751 526.27 369.288L533.202 380.472Z" fill="white"/>
<path d="M537.246 383.008C537.246 383.008 533.664 382.316 533.895 380.01C534.011 377.589 537.246 371.709 537.246 371.709L548.683 371.363L549.145 383.008H537.246Z" fill="white"/>
<path d="M442.396 491.273C442.396 495.424 439.045 498.883 434.886 498.998C430.727 498.998 427.261 495.655 427.146 491.504L426.799 467.061C426.799 462.91 430.149 459.451 434.309 459.336C438.468 459.336 441.934 462.679 442.049 466.83L442.396 491.273Z" fill="#091E1D"/>
<path d="M335.993 492.542C335.993 496.693 332.642 500.152 328.483 500.267C324.324 500.267 320.858 496.924 320.743 492.773L320.396 468.33C320.396 464.179 323.747 460.72 327.906 460.605C332.065 460.605 335.531 463.948 335.646 468.099L335.993 492.542Z" fill="#091E1D"/>
<path d="M433.846 473.863C433.962 483.318 426.337 491.043 416.864 491.158L345.697 491.965C336.224 492.081 328.483 484.471 328.368 475.016L320.743 313.368C320.627 303.913 328.252 296.188 337.726 296.073L420.329 295.035C429.803 294.92 437.543 302.53 437.659 311.984L433.846 473.863Z" fill="#322153"/>
<path d="M437.197 328.241L437.543 312.215C437.428 302.76 429.687 295.151 420.214 295.266L337.61 296.304C328.137 296.419 320.512 304.144 320.627 313.598L321.436 329.625L437.197 328.241Z" fill="#1C0C3B"/>
<path d="M451.291 308.179C451.291 310.831 449.212 312.907 446.555 313.022L311.616 314.636C308.959 314.636 306.879 312.561 306.764 309.909L306.533 292.845C306.533 290.193 308.612 288.118 311.269 288.002L446.208 286.388C448.865 286.388 450.945 288.463 451.06 291.115L451.291 308.179Z" fill="#322153"/>
<path d="M379.663 355.567L395.375 346.113L391.562 355.913L379.663 355.567Z" fill="white"/>
<path d="M373.771 340.694C373.771 340.694 375.042 340.694 377.006 343.691C378.97 346.689 383.36 354.76 383.36 354.76L391.332 351.186L393.18 348.073C393.18 348.073 389.714 341.155 386.941 340.694H373.771Z" fill="white"/>
<path d="M369.381 342.769C369.381 342.769 371.807 340.117 373.771 341.501C375.735 342.885 379.201 348.649 379.201 348.649L373.54 358.565L363.373 352.916L369.381 342.769Z" fill="white"/>
<path d="M386.826 367.904L387.635 386.121L380.818 378.166L386.826 367.904Z" fill="white"/>
<path d="M402.769 369.749C402.769 369.749 402.191 370.902 398.61 371.248C395.029 371.594 385.786 371.594 385.786 371.594L385.093 380.356L386.941 383.469C386.941 383.469 394.682 383.815 396.415 381.509L402.769 369.749Z" fill="white"/>
<path d="M402.884 364.906C402.884 364.906 404.155 368.25 401.96 369.403C399.881 370.441 393.064 370.671 393.064 370.671L386.941 360.986L396.761 354.645L402.884 364.906Z" fill="white"/>
<path d="M373.077 367.673L356.903 359.141L367.185 357.297L373.077 367.673Z" fill="white"/>
<path d="M363.373 380.472C363.373 380.472 362.68 379.434 364.182 376.206C365.684 372.977 370.305 365.022 370.305 365.022L363.142 360.064L359.561 360.179C359.561 360.179 355.402 366.751 356.442 369.288L363.373 380.472Z" fill="white"/>
<path d="M367.532 383.008C367.532 383.008 363.951 382.316 364.182 380.01C364.298 377.589 367.532 371.709 367.532 371.709L378.97 371.363L379.432 383.008H367.532Z" fill="white"/>
</g>
<defs>
<linearGradient id="paint0_linear" x1="368.817" y1="153.948" x2="867.317" y2="652.448" gradientUnits="userSpaceOnUse">
<stop stop-color="white"/>
<stop offset="1" stop-color="white" stop-opacity="0"/>
</linearGradient>
<clipPath id="clip0">
<rect width="877" height="660" fill="white"/>
</clipPath>
</defs>
</svg>
